/* XPM */
static char *result[] = {
/* columns rows colors chars-per-pixel */
"64 64 5 1 ",
"  c black",
". c #3F3F74",
"X c #51B310",
"o c #6BBE30",
"O c #98E550",
/* pixels */
"........................                ........................",
"........................                ........................",
"........................                ........................",
"........................                ........................",
"........................                ........................",
"........................                ........................",
"........................                ........................",
"........................                ........................",
"................        oooooooooooooooo        ................",
"................        oooooooooooooooo        ................",
"................        oooooooooooooooo        ................",
"................        oooooooooooooooo        ................",
"................        oooooooooooooooo        ................",
"................        oooooooooooooooo        ................",
"................        oooooooooooooooo        ................",
"................        oooooooooooooooo        ................",
"........        ooooooooOOOOOOOOOOOOOOOOoooooooo        ........",
"........        ooooooooOOOOOOOOOOOOOOOOoooooooo        ........",
"........        ooooooooOOOOOOOOOOOOOOOOoooooooo        ........",
"........        ooooooooOOOOOOOOOOOOOOOOoooooooo        ........",
"........        ooooooooOOOOOOOOOOOOOOOOoooooooo        ........",
"........        ooooooooOOOOOOOOOOOOOOOOoooooooo        ........",
"........        ooooooooOOOOOOOOOOOOOOOOoooooooo        ........",
"........        ooooooooOOOOOOOOOOOOOOOOoooooooo        ........",
"        ooooooooOOOOOOOOXXXXXXXXOOOOOOOOOOOOOOOOoooooooo        ",
"        ooooooooOOOOOOOOXXXXXXXXOOOOOOOOOOOOOOOOoooooooo        ",
"        ooooooooOOOOOOOOXXXXXXXXOOOOOOOOOOOOOOOOoooooooo        ",
"        ooooooooOOOOOOOOXXXXXXXXOOOOOOOOOOOOOOOOoooooooo        ",
"        ooooooooOOOOOOOOXXXXXXXXOOOOOOOOOOOOOOOOoooooooo        ",
"        ooooooooOOOOOOOOXXXXXXXXOOOOOOOOOOOOOOOOoooooooo        ",
"        ooooooooOOOOOOOOXXXXXXXXOOOOOOOOOOOOOOOOoooooooo        ",
"        ooooooooOOOOOOOOXXXXXXXXOOOOOOOOOOOOOOOOoooooooo        ",
"        ooooooooOOOOOOOOXXXXXXXXXXXXXXXXOOOOOOOOoooooooo        ",
"        ooooooooOOOOOOOOXXXXXXXXXXXXXXXXOOOOOOOOoooooooo        ",
"        ooooooooOOOOOOOOXXXXXXXXXXXXXXXXOOOOOOOOoooooooo        ",
"        ooooooooOOOOOOOOXXXXXXXXXXXXXXXXOOOOOOOOoooooooo        ",
"        ooooooooOOOOOOOOXXXXXXXXXXXXXXXXOOOOOOOOoooooooo        ",
"        ooooooooOOOOOOOOXXXXXXXXXXXXXXXXOOOOOOOOoooooooo        ",
"        ooooooooOOOOOOOOXXXXXXXXXXXXXXXXOOOOOOOOoooooooo        ",
"        ooooooooOOOOOOOOXXXXXXXXXXXXXXXXOOOOOOOOoooooooo        ",
"........        ooooooooOOOOOOOOOOOOOOOOoooooooo        ........",
"........        ooooooooOOOOOOOOOOOOOOOOoooooooo        ........",
"........        ooooooooOOOOOOOOOOOOOOOOoooooooo        ........",
"........        ooooooooOOOOOOOOOOOOOOOOoooooooo        ........",
"........        ooooooooOOOOOOOOOOOOOOOOoooooooo        ........",
"........        ooooooooOOOOOOOOOOOOOOOOoooooooo        ........",
"........        ooooooooOOOOOOOOOOOOOOOOoooooooo        ........",
"........        ooooooooOOOOOOOOOOOOOOOOoooooooo        ........",
"................        oooooooooooooooo        ................",
"................        oooooooooooooooo        ................",
"................        oooooooooooooooo        ................",
"................        oooooooooooooooo        ................",
"................        oooooooooooooooo        ................",
"................        oooooooooooooooo        ................",
"................        oooooooooooooooo        ................",
"................        oooooooooooooooo        ................",
"........................                ........................",
"........................                ........................",
"........................                ........................",
"........................                ........................",
"........................                ........................",
"........................                ........................",
"........................                ........................",
"........................                ........................"
};
