/* XPM */
static char *result[] = {
/* columns rows colors chars-per-pixel */
"64 64 5 1 ",
"  c black",
". c #222034",
"X c #3F3F74",
"o c #AC3232",
"O c #DD2E2E",
/* pixels */
"XXXXXXXX        XXXXXXXXXXXXXXXXXXXXXXXXXXXXXXXX        XXXXXXXX",
"XXXXXXXX        XXXXXXXXXXXXXXXXXXXXXXXXXXXXXXXX        XXXXXXXX",
"XXXXXXXX        XXXXXXXXXXXXXXXXXXXXXXXXXXXXXXXX        XXXXXXXX",
"XXXXXXXX        XXXXXXXXXXXXXXXXXXXXXXXXXXXXXXXX        XXXXXXXX",
"XXXXXXXX        XXXXXXXXXXXXXXXXXXXXXXXXXXXXXXXX        XXXXXXXX",
"XXXXXXXX        XXXXXXXXXXXXXXXXXXXXXXXXXXXXXXXX        XXXXXXXX",
"XXXXXXXX        XXXXXXXXXXXXXXXXXXXXXXXXXXXXXXXX        XXXXXXXX",
"XXXXXXXX        XXXXXXXXXXXXXXXXXXXXXXXXXXXXXXXX        XXXXXXXX",
"........                                                ........",
"........                                                ........",
"........                                                ........",
"........                                                ........",
"........                                                ........",
"........                                                ........",
"........                                                ........",
"........                                                ........",
"                oooooooo                oooooooo                ",
"                oooooooo                oooooooo                ",
"                oooooooo                oooooooo                ",
"                oooooooo                oooooooo                ",
"                oooooooo                oooooooo                ",
"                oooooooo                oooooooo                ",
"                oooooooo                oooooooo                ",
"                oooooooo                oooooooo                ",
"........        OOOOOOOO                OOOOOOOO        ........",
"........        OOOOOOOO                OOOOOOOO        ........",
"........        OOOOOOOO                OOOOOOOO        ........",
"........        OOOOOOOO                OOOOOOOO        ........",
"........        OOOOOOOO                OOOOOOOO        ........",
"........        OOOOOOOO                OOOOOOOO        ........",
"........        OOOOOOOO                OOOOOOOO        ........",
"........        OOOOOOOO                OOOOOOOO        ........",
"XXXXXXXX                                                XXXXXXXX",
"XXXXXXXX                                                XXXXXXXX",
"XXXXXXXX                                                XXXXXXXX",
"XXXXXXXX                                                XXXXXXXX",
"XXXXXXXX                                                XXXXXXXX",
"XXXXXXXX                                                XXXXXXXX",
"XXXXXXXX                                                XXXXXXXX",
"XXXXXXXX                                                XXXXXXXX",
"XXXXXXXX                                                XXXXXXXX",
"XXXXXXXX                                                XXXXXXXX",
"XXXXXXXX                                                XXXXXXXX",
"XXXXXXXX                                                XXXXXXXX",
"XXXXXXXX                                                XXXXXXXX",
"XXXXXXXX                                                XXXXXXXX",
"XXXXXXXX                                                XXXXXXXX",
"XXXXXXXX                                                XXXXXXXX",
"XXXXXXXXXXXXXXXX        ................        XXXXXXXXXXXXXXXX",
"XXXXXXXXXXXXXXXX        ................        XXXXXXXXXXXXXXXX",
"XXXXXXXXXXXXXXXX        ................        XXXXXXXXXXXXXXXX",
"XXXXXXXXXXXXXXXX        ................        XXXXXXXXXXXXXXXX",
"XXXXXXXXXXXXXXXX        ................        XXXXXXXXXXXXXXXX",
"XXXXXXXXXXXXXXXX        ................        XXXXXXXXXXXXXXXX",
"XXXXXXXXXXXXXXXX        ................        XXXXXXXXXXXXXXXX",
"XXXXXXXXXXXXXXXX        ................        XXXXXXXXXXXXXXXX",
"XXXXXXXX        ........                ........        XXXXXXXX",
"XXXXXXXX        ........                ........        XXXXXXXX",
"XXXXXXXX        ........                ........        XXXXXXXX",
"XXXXXXXX        ........                ........        XXXXXXXX",
"XXXXXXXX        ........                ........        XXXXXXXX",
"XXXXXXXX        ........                ........        XXXXXXXX",
"XXXXXXXX        ........                ........        XXXXXXXX",
"XXXXXXXX        ........                ........        XXXXXXXX"
};
