/* XPM */
static char *eaddd671f3e84e47ed78edb062321c66coOp1kinTPIAfSVG[] = {
/* columns rows colors chars-per-pixel */
"64 64 3 1 ",
"  c #3F3F74",
". c #AC3232",
"X c #BA4141",
/* pixels */
"                                                                ",
"                                                                ",
"                                                                ",
"                                                                ",
"                                                                ",
"                                                                ",
"                                                                ",
"                                                                ",
"                                                                ",
"                                                                ",
"                                                                ",
"                                                                ",
"                                                                ",
"                                                                ",
"                                                                ",
"                                                                ",
"                                                                ",
"                                                                ",
"                                                                ",
"                                                                ",
"                                                                ",
"                                                                ",
"                                                                ",
"                                                                ",
"                        ........                                ",
"                        ........                                ",
"                        ........                                ",
"                        ........                                ",
"                        ........                                ",
"                        ........                                ",
"                        ........                                ",
"                        ........                                ",
"                ........XXXXXXXX........                        ",
"                ........XXXXXXXX........                        ",
"                ........XXXXXXXX........                        ",
"                ........XXXXXXXX........                        ",
"                ........XXXXXXXX........                        ",
"                ........XXXXXXXX........                        ",
"                ........XXXXXXXX........                        ",
"                ........XXXXXXXX........                        ",
"                        ........                                ",
"                        ........                                ",
"                        ........                                ",
"                        ........                                ",
"                        ........                                ",
"                        ........                                ",
"                        ........                                ",
"                        ........                                ",
"                                                                ",
"                                                                ",
"                                                                ",
"                                                                ",
"                                                                ",
"                                                                ",
"                                                                ",
"                                                                ",
"                                                                ",
"                                                                ",
"                                                                ",
"                                                                ",
"                                                                ",
"                                                                ",
"                                                                ",
"                                                                "
};
