/* XPM */
static char *result[] = {
/* columns rows colors chars-per-pixel */
"64 64 7 1 ",
"  c #3F3F74",
". c #AC3232",
"X c #DA5762",
"o c #F17BAC",
"O c #F17FCD",
"+ c #F8AADF",
"@ c white",
/* pixels */
"                        ........@@@@@@@@                        ",
"                        ........@@@@@@@@                        ",
"                        ........@@@@@@@@                        ",
"                        ........@@@@@@@@                        ",
"                        ........@@@@@@@@                        ",
"                        ........@@@@@@@@                        ",
"                        ........@@@@@@@@                        ",
"                        ........@@@@@@@@                        ",
"                ........XXXXXXXX++++++++@@@@@@@@                ",
"                ........XXXXXXXX++++++++@@@@@@@@                ",
"                ........XXXXXXXX++++++++@@@@@@@@                ",
"                ........XXXXXXXX++++++++@@@@@@@@                ",
"                ........XXXXXXXX++++++++@@@@@@@@                ",
"                ........XXXXXXXX++++++++@@@@@@@@                ",
"                ........XXXXXXXX++++++++@@@@@@@@                ",
"                ........XXXXXXXX++++++++@@@@@@@@                ",
"        ........XXXXXXXXOOOOOOOOOOOOOOOO++++++++@@@@@@@@        ",
"        ........XXXXXXXXOOOOOOOOOOOOOOOO++++++++@@@@@@@@        ",
"        ........XXXXXXXXOOOOOOOOOOOOOOOO++++++++@@@@@@@@        ",
"        ........XXXXXXXXOOOOOOOOOOOOOOOO++++++++@@@@@@@@        ",
"        ........XXXXXXXXOOOOOOOOOOOOOOOO++++++++@@@@@@@@        ",
"        ........XXXXXXXXOOOOOOOOOOOOOOOO++++++++@@@@@@@@        ",
"        ........XXXXXXXXOOOOOOOOOOOOOOOO++++++++@@@@@@@@        ",
"        ........XXXXXXXXOOOOOOOOOOOOOOOO++++++++@@@@@@@@        ",
"........XXXXXXXXooooooooOOOOOOOOoooooooooooooooo++++++++@@@@@@@@",
"........XXXXXXXXooooooooOOOOOOOOoooooooooooooooo++++++++@@@@@@@@",
"........XXXXXXXXooooooooOOOOOOOOoooooooooooooooo++++++++@@@@@@@@",
"........XXXXXXXXooooooooOOOOOOOOoooooooooooooooo++++++++@@@@@@@@",
"........XXXXXXXXooooooooOOOOOOOOoooooooooooooooo++++++++@@@@@@@@",
"........XXXXXXXXooooooooOOOOOOOOoooooooooooooooo++++++++@@@@@@@@",
"........XXXXXXXXooooooooOOOOOOOOoooooooooooooooo++++++++@@@@@@@@",
"........XXXXXXXXooooooooOOOOOOOOoooooooooooooooo++++++++@@@@@@@@",
"@@@@@@@@++++++++ooooooooooooooooOOOOOOOOooooooooXXXXXXXX........",
"@@@@@@@@++++++++ooooooooooooooooOOOOOOOOooooooooXXXXXXXX........",
"@@@@@@@@++++++++ooooooooooooooooOOOOOOOOooooooooXXXXXXXX........",
"@@@@@@@@++++++++ooooooooooooooooOOOOOOOOooooooooXXXXXXXX........",
"@@@@@@@@++++++++ooooooooooooooooOOOOOOOOooooooooXXXXXXXX........",
"@@@@@@@@++++++++ooooooooooooooooOOOOOOOOooooooooXXXXXXXX........",
"@@@@@@@@++++++++ooooooooooooooooOOOOOOOOooooooooXXXXXXXX........",
"@@@@@@@@++++++++ooooooooooooooooOOOOOOOOooooooooXXXXXXXX........",
"        @@@@@@@@++++++++OOOOOOOOOOOOOOOOXXXXXXXX........        ",
"        @@@@@@@@++++++++OOOOOOOOOOOOOOOOXXXXXXXX........        ",
"        @@@@@@@@++++++++OOOOOOOOOOOOOOOOXXXXXXXX........        ",
"        @@@@@@@@++++++++OOOOOOOOOOOOOOOOXXXXXXXX........        ",
"        @@@@@@@@++++++++OOOOOOOOOOOOOOOOXXXXXXXX........        ",
"        @@@@@@@@++++++++OOOOOOOOOOOOOOOOXXXXXXXX........        ",
"        @@@@@@@@++++++++OOOOOOOOOOOOOOOOXXXXXXXX........        ",
"        @@@@@@@@++++++++OOOOOOOOOOOOOOOOXXXXXXXX........        ",
"                @@@@@@@@++++++++XXXXXXXX........                ",
"                @@@@@@@@++++++++XXXXXXXX........                ",
"                @@@@@@@@++++++++XXXXXXXX........                ",
"                @@@@@@@@++++++++XXXXXXXX........                ",
"                @@@@@@@@++++++++XXXXXXXX........                ",
"                @@@@@@@@++++++++XXXXXXXX........                ",
"                @@@@@@@@++++++++XXXXXXXX........                ",
"                @@@@@@@@++++++++XXXXXXXX........                ",
"                        @@@@@@@@........                        ",
"                        @@@@@@@@........                        ",
"                        @@@@@@@@........                        ",
"                        @@@@@@@@........                        ",
"                        @@@@@@@@........                        ",
"                        @@@@@@@@........                        ",
"                        @@@@@@@@........                        ",
"                        @@@@@@@@........                        "
};
