/* XPM */
static char *result[] = {
/* columns rows colors chars-per-pixel */
"64 64 5 1 ",
"  c black",
". c #3F3F74",
"X c #DF7026",
"o c #DA5762",
"O c white",
/* pixels */
"................                                ................",
"................                                ................",
"................                                ................",
"................                                ................",
"................                                ................",
"................                                ................",
"................                                ................",
"................                                ................",
"........        XXXXXXXXXXXXXXXXXXXXXXXXXXXXXXXX        ........",
"........        XXXXXXXXXXXXXXXXXXXXXXXXXXXXXXXX        ........",
"........        XXXXXXXXXXXXXXXXXXXXXXXXXXXXXXXX        ........",
"........        XXXXXXXXXXXXXXXXXXXXXXXXXXXXXXXX        ........",
"........        XXXXXXXXXXXXXXXXXXXXXXXXXXXXXXXX        ........",
"........        XXXXXXXXXXXXXXXXXXXXXXXXXXXXXXXX        ........",
"........        XXXXXXXXXXXXXXXXXXXXXXXXXXXXXXXX        ........",
"........        XXXXXXXXXXXXXXXXXXXXXXXXXXXXXXXX        ........",
"        XXXXXXXXOOOOOOOOXXXXXXXXXXXXXXXXOOOOOOOOXXXXXXXX        ",
"        XXXXXXXXOOOOOOOOXXXXXXXXXXXXXXXXOOOOOOOOXXXXXXXX        ",
"        XXXXXXXXOOOOOOOOXXXXXXXXXXXXXXXXOOOOOOOOXXXXXXXX        ",
"        XXXXXXXXOOOOOOOOXXXXXXXXXXXXXXXXOOOOOOOOXXXXXXXX        ",
"        XXXXXXXXOOOOOOOOXXXXXXXXXXXXXXXXOOOOOOOOXXXXXXXX        ",
"        XXXXXXXXOOOOOOOOXXXXXXXXXXXXXXXXOOOOOOOOXXXXXXXX        ",
"        XXXXXXXXOOOOOOOOXXXXXXXXXXXXXXXXOOOOOOOOXXXXXXXX        ",
"        XXXXXXXXOOOOOOOOXXXXXXXXXXXXXXXXOOOOOOOOXXXXXXXX        ",
"        XXXXXXXX        XXXXXXXXXXXXXXXX        XXXXXXXX        ",
"        XXXXXXXX        XXXXXXXXXXXXXXXX        XXXXXXXX        ",
"        XXXXXXXX        XXXXXXXXXXXXXXXX        XXXXXXXX        ",
"        XXXXXXXX        XXXXXXXXXXXXXXXX        XXXXXXXX        ",
"        XXXXXXXX        XXXXXXXXXXXXXXXX        XXXXXXXX        ",
"        XXXXXXXX        XXXXXXXXXXXXXXXX        XXXXXXXX        ",
"        XXXXXXXX        XXXXXXXXXXXXXXXX        XXXXXXXX        ",
"        XXXXXXXX        XXXXXXXXXXXXXXXX        XXXXXXXX        ",
"        XXXXXXXXooooooooXXXXXXXXXXXXXXXXooooooooXXXXXXXX        ",
"        XXXXXXXXooooooooXXXXXXXXXXXXXXXXooooooooXXXXXXXX        ",
"        XXXXXXXXooooooooXXXXXXXXXXXXXXXXooooooooXXXXXXXX        ",
"        XXXXXXXXooooooooXXXXXXXXXXXXXXXXooooooooXXXXXXXX        ",
"        XXXXXXXXooooooooXXXXXXXXXXXXXXXXooooooooXXXXXXXX        ",
"        XXXXXXXXooooooooXXXXXXXXXXXXXXXXooooooooXXXXXXXX        ",
"        XXXXXXXXooooooooXXXXXXXXXXXXXXXXooooooooXXXXXXXX        ",
"        XXXXXXXXooooooooXXXXXXXXXXXXXXXXooooooooXXXXXXXX        ",
"........        XXXXXXXX                XXXXXXXX                ",
"........        XXXXXXXX                XXXXXXXX                ",
"........        XXXXXXXX                XXXXXXXX                ",
"........        XXXXXXXX                XXXXXXXX                ",
"........        XXXXXXXX                XXXXXXXX                ",
"........        XXXXXXXX                XXXXXXXX                ",
"........        XXXXXXXX                XXXXXXXX                ",
"........        XXXXXXXX                XXXXXXXX                ",
"........        XXXXXXXX        ........XXXXXXXX        ........",
"........        XXXXXXXX        ........XXXXXXXX        ........",
"........        XXXXXXXX        ........XXXXXXXX        ........",
"........        XXXXXXXX        ........XXXXXXXX        ........",
"........        XXXXXXXX        ........XXXXXXXX        ........",
"........        XXXXXXXX        ........XXXXXXXX        ........",
"........        XXXXXXXX        ........XXXXXXXX        ........",
"........        XXXXXXXX        ........XXXXXXXX        ........",
"........                ................                ........",
"........                ................                ........",
"........                ................                ........",
"........                ................                ........",
"........                ................                ........",
"........                ................                ........",
"........                ................                ........",
"........                ................                ........"
};
