/* XPM */
static char *result[] = {
/* columns rows colors chars-per-pixel */
"64 64 6 1 ",
"  c black",
". c #222034",
"X c #3F3F74",
"o c #5C6EE0",
"O c #649AFF",
"+ c white",
/* pixels */
"XXXXXXXX                                                XXXXXXXX",
"XXXXXXXX                                                XXXXXXXX",
"XXXXXXXX                                                XXXXXXXX",
"XXXXXXXX                                                XXXXXXXX",
"XXXXXXXX                                                XXXXXXXX",
"XXXXXXXX                                                XXXXXXXX",
"XXXXXXXX                                                XXXXXXXX",
"XXXXXXXX                                                XXXXXXXX",
"        OOOOOOOOOOOOOOOOOOOOOOOOOOOOOOOOOOOOOOOOOOOOOOOO        ",
"        OOOOOOOOOOOOOOOOOOOOOOOOOOOOOOOOOOOOOOOOOOOOOOOO        ",
"        OOOOOOOOOOOOOOOOOOOOOOOOOOOOOOOOOOOOOOOOOOOOOOOO        ",
"        OOOOOOOOOOOOOOOOOOOOOOOOOOOOOOOOOOOOOOOOOOOOOOOO        ",
"        OOOOOOOOOOOOOOOOOOOOOOOOOOOOOOOOOOOOOOOOOOOOOOOO        ",
"        OOOOOOOOOOOOOOOOOOOOOOOOOOOOOOOOOOOOOOOOOOOOOOOO        ",
"        OOOOOOOOOOOOOOOOOOOOOOOOOOOOOOOOOOOOOOOOOOOOOOOO        ",
"        OOOOOOOOOOOOOOOOOOOOOOOOOOOOOOOOOOOOOOOOOOOOOOOO        ",
"        ++++++++........OOOOOOOOOOOOOOOO........++++++++        ",
"        ++++++++........OOOOOOOOOOOOOOOO........++++++++        ",
"        ++++++++........OOOOOOOOOOOOOOOO........++++++++        ",
"        ++++++++........OOOOOOOOOOOOOOOO........++++++++        ",
"        ++++++++........OOOOOOOOOOOOOOOO........++++++++        ",
"        ++++++++........OOOOOOOOOOOOOOOO........++++++++        ",
"        ++++++++........OOOOOOOOOOOOOOOO........++++++++        ",
"        ++++++++........OOOOOOOOOOOOOOOO........++++++++        ",
"        OOOOOOOOOOOOOOOOOOOOOOOOOOOOOOOOOOOOOOOOOOOOOOOO        ",
"        OOOOOOOOOOOOOOOOOOOOOOOOOOOOOOOOOOOOOOOOOOOOOOOO        ",
"        OOOOOOOOOOOOOOOOOOOOOOOOOOOOOOOOOOOOOOOOOOOOOOOO        ",
"        OOOOOOOOOOOOOOOOOOOOOOOOOOOOOOOOOOOOOOOOOOOOOOOO        ",
"        OOOOOOOOOOOOOOOOOOOOOOOOOOOOOOOOOOOOOOOOOOOOOOOO        ",
"        OOOOOOOOOOOOOOOOOOOOOOOOOOOOOOOOOOOOOOOOOOOOOOOO        ",
"        OOOOOOOOOOOOOOOOOOOOOOOOOOOOOOOOOOOOOOOOOOOOOOOO        ",
"        OOOOOOOOOOOOOOOOOOOOOOOOOOOOOOOOOOOOOOOOOOOOOOOO        ",
"XXXXXXXX                oooooooooooooooo                XXXXXXXX",
"XXXXXXXX                oooooooooooooooo                XXXXXXXX",
"XXXXXXXX                oooooooooooooooo                XXXXXXXX",
"XXXXXXXX                oooooooooooooooo                XXXXXXXX",
"XXXXXXXX                oooooooooooooooo                XXXXXXXX",
"XXXXXXXX                oooooooooooooooo                XXXXXXXX",
"XXXXXXXX                oooooooooooooooo                XXXXXXXX",
"XXXXXXXX                oooooooooooooooo                XXXXXXXX",
"        OOOOOOOO        oooooooo        OOOOOOOO        XXXXXXXX",
"        OOOOOOOO        oooooooo        OOOOOOOO        XXXXXXXX",
"        OOOOOOOO        oooooooo        OOOOOOOO        XXXXXXXX",
"        OOOOOOOO        oooooooo        OOOOOOOO        XXXXXXXX",
"        OOOOOOOO        oooooooo        OOOOOOOO        XXXXXXXX",
"        OOOOOOOO        oooooooo        OOOOOOOO        XXXXXXXX",
"        OOOOOOOO        oooooooo        OOOOOOOO        XXXXXXXX",
"        OOOOOOOO        oooooooo        OOOOOOOO        XXXXXXXX",
"        OOOOOOOO        OOOOOOOO        OOOOOOOO        XXXXXXXX",
"        OOOOOOOO        OOOOOOOO        OOOOOOOO        XXXXXXXX",
"        OOOOOOOO        OOOOOOOO        OOOOOOOO        XXXXXXXX",
"        OOOOOOOO        OOOOOOOO        OOOOOOOO        XXXXXXXX",
"        OOOOOOOO        OOOOOOOO        OOOOOOOO        XXXXXXXX",
"        OOOOOOOO        OOOOOOOO        OOOOOOOO        XXXXXXXX",
"        OOOOOOOO        OOOOOOOO        OOOOOOOO        XXXXXXXX",
"        OOOOOOOO        OOOOOOOO        OOOOOOOO        XXXXXXXX",
"        OOOOOOOO        OOOOOOOO        OOOOOOOO                ",
"        OOOOOOOO        OOOOOOOO        OOOOOOOO                ",
"        OOOOOOOO        OOOOOOOO        OOOOOOOO                ",
"        OOOOOOOO        OOOOOOOO        OOOOOOOO                ",
"        OOOOOOOO        OOOOOOOO        OOOOOOOO                ",
"        OOOOOOOO        OOOOOOOO        OOOOOOOO                ",
"        OOOOOOOO        OOOOOOOO        OOOOOOOO                ",
"        OOOOOOOO        OOOOOOOO        OOOOOOOO                "
};
