/* XPM */
static char *_3be8107d84e4b21b6e6430cd71227e1WzbkHDWuMUongNVT[] = {
/* columns rows colors chars-per-pixel */
"64 64 2 1 ",
"  c #1B1A22",
". c #222034",
/* pixels */
"        ........        ........................        ........",
"        ........        ........................        ........",
"        ........        ........................        ........",
"        ........        ........................        ........",
"        ........        ........................        ........",
"        ........        ........................        ........",
"        ........        ........................        ........",
"        ........        ........................        ........",
"........................        ........................        ",
"........................        ........................        ",
"........................        ........................        ",
"........................        ........................        ",
"........................        ........................        ",
"........................        ........................        ",
"........................        ........................        ",
"........................        ........................        ",
"........                        ........                ........",
"........                        ........                ........",
"........                        ........                ........",
"........                        ........                ........",
"........                        ........                ........",
"........                        ........                ........",
"........                        ........                ........",
"........                        ........                ........",
"        ........................        ........................",
"        ........................        ........................",
"        ........................        ........................",
"        ........................        ........................",
"        ........................        ........................",
"        ........................        ........................",
"        ........................        ........................",
"        ........................        ........................",
"        ........                ........                        ",
"        ........                ........                        ",
"        ........                ........                        ",
"        ........                ........                        ",
"        ........                ........                        ",
"        ........                ........                        ",
"        ........                ........                        ",
"        ........                ........                        ",
"        ................        ........        ................",
"        ................        ........        ................",
"        ................        ........        ................",
"        ................        ........        ................",
"        ................        ........        ................",
"        ................        ........        ................",
"        ................        ........        ................",
"        ................        ........        ................",
"........                ........        ........                ",
"........                ........        ........                ",
"........                ........        ........                ",
"........                ........        ........                ",
"........                ........        ........                ",
"........                ........        ........                ",
"........                ........        ........                ",
"........                ........        ........                ",
"        ........................        ........        ........",
"        ........................        ........        ........",
"        ........................        ........        ........",
"        ........................        ........        ........",
"        ........................        ........        ........",
"        ........................        ........        ........",
"        ........................        ........        ........",
"        ........................        ........        ........"
};
